# xmcd
# 
# Track frame offsets:
#     150
#     14545
#     30791
#     45903
#     59790
#     75559
#     93364
#     105060
#     122482
#     140123
#     152668
#     165015
#     173433
# 
# Disc length: 2491
# 
# Revision: 0
# Processed by: cddbd v1.5.2PL0 Copyright (c) Steve Scherf et al.
# Submitted via: BonkEnc v1.0.6
# 
DISCID=8609b90d
DTITLE=Marisa Monte - Mem_rias, Cr_nicas e Declara__es de Amor
DYEAR=2000
DGENRE=Vise
TTITLE0=Amor I love you
TTITLE1=N_o v_ embora
TTITLE2=O que me importa
TTITLE3=N_o - f_cil
TTITLE4=Perd_o voc_
TTITLE5=Tema de amor
TTITLE6=Abolol_
TTITLE7=Para ver as meninas
TTITLE8=Cinco minutos
TTITLE9=Gentileza
TTITLE10=_gua tamb_m - mar
TTITLE11=Gotas de luar
TTITLE12=Sou seu sabi_
EXTD=YEAR: 2000
EXTT0=
EXTT1=
EXTT2=
EXTT3=
EXTT4=
EXTT5=
EXTT6=
EXTT7=
EXTT8=
EXTT9=
EXTT10=
EXTT11=
EXTT12=
PLAYORDER=
